# xmcd
#
# Track frame offsets:
# 150
# 14853
# 29238
# 44354
# 57458
# 74246
# 90374
# 108161
# 122765
# 139512
# 152807
# 168419
# 185096
# 203713
# 220211
#
# Disc length: 3157 seconds
#
#
# Revision: 0
# Processed by: cddbd v1.5.2PL0 Copyright (c) Steve Scherf et al.
# Submitted via: FreeRIP 2.951 
#
DISCID=e50c530f
DTITLE=TRIO ALTO ASTRAL  - AUMENTA O SOM 
DYEAR=2007
DGENRE=SERTANEJO -BATIDÃO 
TTITLE0=QUEIMO A LINGUA MAS NÃO SOPRO
TTITLE1=MATA DE SAUDADE
TTITLE2=NÃO SOU CAVALO
TTITLE3=MARIDO PIRATA
TTITLE4=CORAÇÃO EM PROMOÇÃO
TTITLE5=PENSA
TTITLE6=PRECISO DE MIM
TTITLE7=FALANDO SÉRIO
TTITLE8=É FODA
TTITLE9=MARTELO
TTITLE10=AUMENTA O SOM
TTITLE11=TROCAO ÓDIO PELO AMOR
TTITLE12=SONHEI COM ELA
TTITLE13=O JUÍZ
TTITLE14=SAUDADE PICA PAU
EXTD=
EXTT0=
EXTT1=
EXTT2=
EXTT3=
EXTT4=
EXTT5=
EXTT6=
EXTT7=
EXTT8=
EXTT9=
EXTT10=
EXTT11=
EXTT12=
EXTT13=
EXTT14=
PLAYORDER=
